<?xml version="1.0" encoding="UTF-8"?> <svg xmlns="http://www.w3.org/2000/svg" xmlns:xlink="http://www.w3.org/1999/xlink" id="Layer_1" data-name="Layer 1" viewBox="0 0 378.12 109.3"><defs><style>.cls-1{fill:#fff;}.cls-2{fill:#5bc8f3;}.cls-3{fill:url(#linear-gradient);}.cls-4{fill:url(#linear-gradient-2);}.cls-5{fill:url(#linear-gradient-3);}</style><linearGradient id="linear-gradient" x1="86.45" y1="54.97" x2="18.38" y2="54.97" gradientUnits="userSpaceOnUse"><stop offset="0" stop-color="#ffdf00"></stop><stop offset="0.41" stop-color="#fbbc0e"></stop><stop offset="0.78" stop-color="#f9a418"></stop><stop offset="1" stop-color="#f89b1c"></stop></linearGradient><linearGradient id="linear-gradient-2" x1="68.78" y1="61.43" x2="4.76" y2="125.45" gradientUnits="userSpaceOnUse"><stop offset="0" stop-color="#ee4447"></stop><stop offset="1" stop-color="#c5166c"></stop></linearGradient><linearGradient id="linear-gradient-3" x1="4.47" y1="-15.79" x2="56.75" y2="36.48" gradientUnits="userSpaceOnUse"><stop offset="0" stop-color="#269e6f"></stop><stop offset="0.05" stop-color="#2ba06f"></stop><stop offset="0.47" stop-color="#53b26b"></stop><stop offset="0.8" stop-color="#6bbd69"></stop><stop offset="1" stop-color="#74c168"></stop></linearGradient></defs><title>Untitled-1</title><rect class="cls-1" width="378.12" height="109.3" rx="12.92"></rect><path class="cls-2" d="M28.3,19.91a5.64,5.64,0,0,0-1.31,4V86.08a5.66,5.66,0,0,0,1.31,4l.2.2L63.36,55.39v-.83L28.5,19.71Z"></path><path class="cls-3" d="M75,67,63.36,55.39v-.83L75,42.94l.26.15L89,50.91c3.93,2.24,3.93,5.89,0,8.13L75.24,66.86Z"></path><path class="cls-4" d="M75.24,66.86,63.36,55,28.3,90c1.29,1.37,3.43,1.54,5.84.17l41.1-23.35"></path><path class="cls-5" d="M75.24,43.09,34.14,19.74c-2.41-1.37-4.55-1.2-5.84.17L63.36,55Z"></path><path d="M190.75,59.91a12,12,0,1,0,12,12A11.8,11.8,0,0,0,190.75,59.91Zm0,19.23A6.93,6.93,0,0,1,184,71.88c0-4.31,3.13-7.26,6.75-7.26a7.28,7.28,0,0,1,0,14.52ZM164.53,59.91a12,12,0,1,0,12,12A11.8,11.8,0,0,0,164.53,59.91Zm0,19.23a7.28,7.28,0,1,1,6.76-7.26A6.93,6.93,0,0,1,164.53,79.14ZM133.34,63.58v5.08H145.5a10.68,10.68,0,0,1-2.77,6.4,12.45,12.45,0,0,1-9.39,3.72,13.52,13.52,0,0,1,0-27,13,13,0,0,1,9.16,3.63l3.59-3.58a17.71,17.71,0,0,0-12.75-5.13,18.6,18.6,0,1,0,0,37.2c5.53,0,9.71-1.82,13-5.22s4.4-8.07,4.4-11.88a16.77,16.77,0,0,0-.27-3.18Zm127.57,4c-1-2.68-4-7.62-10.25-7.62s-11.3,4.85-11.3,12a11.72,11.72,0,0,0,11.88,12,11.91,11.91,0,0,0,10-5.31l-4.08-2.72a6.85,6.85,0,0,1-5.9,3.31,6.09,6.09,0,0,1-5.8-3.63l16-6.62Zm-16.33,4a6.57,6.57,0,0,1,6.26-7,4.65,4.65,0,0,1,4.44,2.54Zm-13,11.61h5.26V47.93h-5.26Zm-8.62-20.55h-.18a8.33,8.33,0,0,0-6.31-2.67c-6,0-11.47,5.26-11.47,12a11.86,11.86,0,0,0,11.47,11.93,8.15,8.15,0,0,0,6.31-2.73h.18v1.73c0,4.58-2.45,7-6.4,7a6.62,6.62,0,0,1-6-4.27l-4.58,1.91a11.41,11.41,0,0,0,10.61,7.08c6.17,0,11.39-3.63,11.39-12.48V60.63h-5Zm-6,16.56c-3.63,0-6.67-3-6.67-7.21s3-7.31,6.67-7.31,6.39,3.09,6.39,7.31S220.49,79.14,216.91,79.14Zm68.64-31.21H273v35.2h5.26V69.79h7.33c5.83,0,11.55-4.21,11.55-10.93S291.38,47.93,285.55,47.93Zm.14,17h-7.47V52.83h7.47a6,6,0,1,1,0,12.07Zm32.47-5.06c-3.81,0-7.75,1.68-9.38,5.39l4.67,2a5,5,0,0,1,4.8-2.58c2.71,0,5.48,1.63,5.52,4.52v.37a11.54,11.54,0,0,0-5.48-1.36c-5,0-10.14,2.76-10.14,7.92,0,4.71,4.12,7.75,8.74,7.75a7.4,7.4,0,0,0,6.7-3.45h.18v2.72h5.07V69.58C328.84,63.33,324.18,59.84,318.16,59.84Zm-.64,19.29c-1.72,0-4.12-.86-4.12-3,0-2.71,3-3.76,5.57-3.76a9.34,9.34,0,0,1,4.8,1.18A6.37,6.37,0,0,1,317.52,79.13Zm29.8-18.52-6,15.26h-.18l-6.25-15.26h-5.66l9.37,21.33L333.24,93.8h5.48l14.44-33.19ZM300,83.13h5.25V47.93H300Z"></path><path d="M128,21.9a6.07,6.07,0,0,0-4-1.54,6.21,6.21,0,0,0-6.13,6.38A6.18,6.18,0,0,0,124,33.08c3,0,5.14-1.73,5.28-4.47h-4.71V26.66h7.26c0,5.82-3.1,8.56-7.83,8.56a8.5,8.5,0,0,1,0-17,8.24,8.24,0,0,1,5.6,2.19Z"></path><path d="M144.71,18.42v2.09h-7.58V25.8h6.62v2.09h-6.62v5H145V35h-10V18.42Z"></path><path d="M159.21,18.42v2.11h-5V35h-2.26V20.53h-5V18.42Z"></path><path d="M169.93,18.42V35H167.7V18.42Z"></path><path d="M185.17,18.42v2.11h-5V35h-2.26V20.53h-5V18.42Z"></path><path d="M201,18.22a8.5,8.5,0,1,1-8.37,8.52A8.4,8.4,0,0,1,201,18.22Zm0,14.84a6.17,6.17,0,0,0,6.15-6.32,6.14,6.14,0,1,0-12.28,0A6.16,6.16,0,0,0,201,33.06Z"></path><path d="M222.59,35,215,22.51V35H212.8V18.42H215l7.48,12.38V18.42h2.24V35Z"></path></svg> 